<svg xmlns="http://www.w3.org/2000/svg" width="1280" height="800" viewBox="0 0 1280 800">
  <rect width="1280" height="800" fill="#1C2018"/>
  <g stroke="#3D4433" stroke-width="1.5" opacity="0.5">
    <line x1="0" y1="200" x2="1280" y2="200"/>
    <line x1="0" y1="400" x2="1280" y2="400"/>
    <line x1="0" y1="600" x2="1280" y2="600"/>
    <line x1="320" y1="0" x2="320" y2="800"/>
    <line x1="640" y1="0" x2="640" y2="800"/>
    <line x1="960" y1="0" x2="960" y2="800"/>
  </g>
  <rect x="34" y="26" width="1212" height="748" rx="16" fill="none" stroke="#3D4433" stroke-width="3"/>
  <rect x="54" y="46" width="1172" height="76" rx="8" fill="#262B21" stroke="#3D4433" stroke-width="2"/>
  <text x="80" y="88" font-family="system-ui, sans-serif" font-size="30" font-weight="800" fill="#E6E3D6">Arm<span fill="#C4A24A">o</span>ry</text>
  <g font-family="monospace">
    <text x="200" y="96" text-anchor="end" font-size="20" font-weight="600" fill="#E6E3D6">4</text>
    <text x="210" y="94" font-size="11" fill="#98A085">firearms</text>
    <text x="400" y="96" text-anchor="end" font-size="20" font-weight="600" fill="#E6E3D6">2955</text>
    <text x="410" y="94" font-size="11" fill="#98A085">rounds on hand</text>
    <text x="600" y="96" text-anchor="end" font-size="20" font-weight="600" fill="#E6E3D6">5</text>
    <text x="610" y="94" font-size="11" fill="#98A085">calibers</text>
  </g>
  <rect x="1110" y="60" width="100" height="38" rx="6" fill="#B0603A" opacity="0.9"/>
  <text x="1160" y="84" text-anchor="middle" font-size="12" font-weight="600" fill="#1C2018">EXPORT</text>
  <text x="80" y="166" font-size="12" font-weight="600" fill="#98A085">ROUNDS ON HAND, BY CALIBER</text>
  <text x="80" y="200" font-size="13" fill="#98A085">9mm</text>
  <text x="1180" y="206" text-anchor="end" font-family="monospace" font-size="24" font-weight="600" fill="#C4A24A">640</text>
  <line x1="80" y1="222" x2="1180" y2="222" stroke="#333A2B" stroke-width="2"/>
  <text x="80" y="256" font-size="13" fill="#98A085">.223 Rem</text>
  <text x="1180" y="262" text-anchor="end" font-family="monospace" font-size="24" font-weight="600" fill="#C4A24A">120</text>
  <line x1="80" y1="278" x2="1180" y2="278" stroke="#333A2B" stroke-width="2"/>
  <text x="80" y="312" font-size="13" fill="#98A085">12 gauge</text>
  <text x="1180" y="318" text-anchor="end" font-family="monospace" font-size="24" font-weight="600" fill="#C4A24A">45</text>
  <line x1="80" y1="334" x2="1180" y2="334" stroke="#333A2B" stroke-width="2"/>
  <text x="80" y="366" font-size="13" fill="#DDBB66" font-family="monospace">&#9650;</text>
  <text x="100" y="366" font-size="13" fill="#DDC6B8">Due for cleaning: Grandpas .30-30</text>
  <line x1="148" y1="348" x2="148" y2="378" stroke="#B0603A" stroke-width="2"/>
  <g font-family="system-ui, sans-serif" font-size="14" font-weight="600">
    <text x="80" y="422" fill="#98A085">Firearms</text>
    <text x="196" y="422" fill="#98A085">Ammunition</text>
    <text x="330" y="422" fill="#98A085">Reloading</text>
    <text x="452" y="422" fill="#98A085">Maintenance</text>
    <text x="574" y="422" fill="#98A085">Activity</text>
  </g>
  <line x1="80" y1="436" x2="1180" y2="436" stroke="#3D4433" stroke-width="2"/>
  <rect x="418" y="452" width="120" height="26" rx="4" fill="#2F3529"/>
  <text x="448" y="470" font-size="11" fill="#E6E3D6" font-family="monospace">Reloading</text>
  <rect x="80" y="468" width="660" height="30" rx="4" fill="#262B21" stroke="#3D4433" stroke-width="2"/>
  <text x="100" y="487" font-size="12" fill="#767D66">Search</text>
  <rect x="1100" y="466" width="80" height="34" rx="4" fill="#C4A24A"/>
  <text x="1140" y="487" text-anchor="middle" font-size="13" font-weight="600" fill="#1C2018">Add firearm</text>
  <g font-family="monospace">
    <rect x="80" y="516" width="1160" height="58" rx="7" fill="#262B21" stroke="#3D4433" stroke-width="2"/>
    <text x="104" y="540" font-size="15" font-weight="600" fill="#E6E3D6">Carry</text>
    <text x="104" y="560" font-size="11.5" fill="#767D66">Glock 19 Gen5 · Pistol</text>
    <text x="330" y="548" font-size="13" fill="#98A085">9mm</text>
    <text x="452" y="548" font-size="13" fill="#767D66">BXYZ204</text>
    <text x="660" y="548" text-anchor="end" font-size="13" fill="#767D66">2023-04-18</text>
    <text x="760" y="548" text-anchor="end" font-size="13" font-weight="600" fill="#E6E3D6">1850</text>
    <text x="910" y="548" text-anchor="end" font-size="13" font-weight="600" fill="#E6E3D6">150</text>
    <text x="1080" y="548" text-anchor="end" font-size="13" font-weight="600" fill="#C4A24A">640</text>
    <text x="1146" y="560" font-size="11.5" fill="#767D66">Details Edit Delete</text>
  </g>
  <g font-family="monospace">
    <rect x="80" y="584" width="1160" height="58" rx="7" fill="#22271E" stroke="#3D4433" stroke-width="2"/>
    <text x="104" y="608" font-size="15" font-weight="600" fill="#E6E3D6">Grandpa's</text>
    <text x="104" y="628" font-size="11.5" fill="#767D66">Remington 870 Wingmaster · Shotgun</text>
    <text x="330" y="616" font-size="13" fill="#98A085">12 gauge</text>
    <text x="452" y="616" font-size="13" fill="#767D66">S661204V</text>
    <text x="660" y="616" text-anchor="end" font-size="13" fill="#767D66">2019-11-25</text>
    <text x="760" y="616" text-anchor="end" font-size="13" font-weight="600" fill="#E6E3D6">310</text>
    <text x="910" y="616" text-anchor="end" font-size="13" font-weight="600" fill="#E6E3D6">310</text>
    <text x="1146" y="628" font-size="11.5" fill="#767D66">Details Edit Delete</text>
  </g>
  <text x="640" y="700" text-anchor="middle" font-size="12" fill="#767D66">Data lives on your NAS at /DATA/AppData/armory/</text>
</svg>