<svg xmlns="http://www.w3.org/2000/svg" width="1280" height="800" viewBox="0 0 1280 800">
  <rect width="1280" height="800" fill="#F2EEE1"/>
  <rect x="0" y="0" width="1280" height="64" fill="#1F3B2C"/>
  <rect x="0" y="64" width="1280" height="6" fill="#E3B23C"/>
  <text x="32" y="42" font-family="Georgia, serif" font-size="30" font-weight="700" fill="#FFFDF8">Furrow<span fill="#E3B23C">.</span></text>
  <text x="150" y="42" font-family="Georgia, serif" font-size="15" font-style="italic" fill="#A8C0A5">plan the rows before you dig them</text>
  <rect x="0" y="70" width="1280" height="40" fill="#142A1E"/>
  <text x="40" y="95" font-family="Arial, sans-serif" font-size="15" font-weight="600" fill="#FFFDF8">My Garden</text>
  <text x="170" y="95" font-family="Arial, sans-serif" font-size="15" font-weight="600" fill="#A8C0A5">Garden Beds</text>
  <text x="300" y="95" font-family="Arial, sans-serif" font-size="15" font-weight="600" fill="#A8C0A5">Plant Library</text>
  <text x="430" y="95" font-family="Arial, sans-serif" font-size="15" font-weight="600" fill="#A8C0A5">Planting Calendar</text>
  <text x="570" y="95" font-family="Arial, sans-serif" font-size="15" font-weight="600" fill="#A8C0A5">Tasks</text>
  <text x="650" y="95" font-family="Arial, sans-serif" font-size="15" font-weight="600" fill="#A8C0A5">Harvest Log</text>
  <rect x="0" y="72" width="128" height="4" fill="#E3B23C"/>

  <text x="40" y="170" font-family="Georgia, serif" font-size="26" font-weight="600" fill="#1F3B2C">My Garden</text>
  <text x="40" y="196" font-family="Arial, sans-serif" font-size="14" fill="#5B5F52">A quick look at everything happening in Furrow.</text>

  <rect x="40" y="220" width="270" height="110" rx="4" fill="#1F3B2C"/>
  <text x="60" y="270" font-family="Georgia, serif" font-size="34" font-weight="700" fill="#FFFDF8">4</text>
  <text x="60" y="300" font-family="Arial, sans-serif" font-size="12" letter-spacing="2" fill="#A8C0A5">GARDEN BEDS</text>
  <rect x="330" y="220" width="270" height="110" rx="4" fill="#1F3B2C"/>
  <text x="350" y="270" font-family="Georgia, serif" font-size="34" font-weight="700" fill="#FFFDF8">62/96</text>
  <text x="350" y="300" font-family="Arial, sans-serif" font-size="12" letter-spacing="2" fill="#A8C0A5">SQUARES PLANTED</text>
  <rect x="620" y="220" width="270" height="110" rx="4" fill="#1F3B2C"/>
  <text x="640" y="270" font-family="Georgia, serif" font-size="34" font-weight="700" fill="#FFFDF8">14</text>
  <text x="640" y="300" font-family="Arial, sans-serif" font-size="12" letter-spacing="2" fill="#A8C0A5">VARIETIES GROWING</text>
  <rect x="910" y="220" width="270" height="110" rx="4" fill="#A8562E"/>
  <text x="930" y="270" font-family="Georgia, serif" font-size="34" font-weight="700" fill="#FFFDF8">23</text>
  <text x="930" y="300" font-family="Arial, sans-serif" font-size="12" letter-spacing="2" fill="#F3D9C8">HARVESTS LOGGED</text>

  <rect x="40" y="360" width="700" height="360" rx="4" fill="#FFFDF8" stroke="#E1DAC4"/>
  <text x="60" y="396" font-family="Georgia, serif" font-size="17" font-weight="600" fill="#1F3B2C">North raised bed</text>
  <text x="60" y="420" font-family="Courier New, monospace" font-size="12" fill="#5B5F52">6 rows x 8 cols &middot; 38/48 squares planted</text>
  <rect x="60" y="440" width="660" height="7" rx="3.5" fill="#E1DAC4"/>
  <rect x="60" y="440" width="500" height="7" rx="3.5" fill="#6B8F71"/>
  <g font-family="Arial, sans-serif" font-size="22" font-weight="700" text-anchor="middle" fill="#FFFDF8">
    <rect x="70" y="470" width="60" height="60" rx="8" fill="#C1442D"/><text x="100" y="507">T</text>
    <rect x="134" y="470" width="60" height="60" rx="8" fill="#C1442D"/><text x="164" y="507">T</text>
    <rect x="198" y="470" width="60" height="60" rx="8" fill="#7FA654"/><text x="228" y="507">L</text>
    <rect x="262" y="470" width="60" height="60" rx="8" fill="#7FA654"/><text x="292" y="507">L</text>
    <rect x="326" y="470" width="60" height="60" rx="8" fill="#4C7A3D"/><text x="356" y="507">B</text>
    <rect x="390" y="470" width="60" height="60" rx="8" fill="#E08A2C"/><text x="420" y="507">C</text>
    <rect x="454" y="470" width="60" height="60" rx="8" fill="#E08A2C"/><text x="484" y="507">C</text>
    <rect x="518" y="470" width="60" height="60" rx="8" fill="#3E7248"/><text x="548" y="507">K</text>
    <rect x="582" y="470" width="60" height="60" rx="8" fill="#B84A5E"/><text x="612" y="507">R</text>
    <rect x="70" y="534" width="60" height="60" rx="8" fill="#5B9A3B"/><text x="100" y="571">Z</text>
    <rect x="134" y="534" width="60" height="60" rx="8" fill="#6E8F3E"/><text x="164" y="571">B</text>
    <rect x="198" y="534" width="60" height="60" rx="8" fill="#33684A"/><text x="228" y="571">B</text>
    <rect x="262" y="534" width="60" height="60" rx="8" fill="#A8324A"/><text x="292" y="571">S</text>
    <rect x="326" y="534" width="60" height="60" rx="8" fill="#A8324A"/><text x="356" y="571">S</text>
    <rect x="390" y="534" width="60" height="60" rx="8" fill="#8CAE58"/><text x="420" y="571">P</text>
    <rect x="454" y="534" width="60" height="60" rx="8" fill="#8C2F4A"/><text x="484" y="571">B</text>
  </g>

  <rect x="780" y="360" width="460" height="360" rx="4" fill="#FFFDF8" stroke="#E1DAC4" stroke-width="5"/>
  <text x="800" y="400" font-family="Georgia, serif" font-size="17" font-weight="600" fill="#1F3B2C">Tasks</text>
  <text x="800" y="428" font-family="Arial, sans-serif" font-size="14" fill="#5B5F52"><tspan fill="#A8562E" font-weight="700">3</tspan> overdue &middot; <tspan fill="#9A7A16" font-weight="700">5</tspan> due now &middot; <tspan fill="#1F3B2C" font-weight="700">12</tspan> upcoming</text>
  <rect x="800" y="452" width="420" height="52" rx="3" fill="#F2EEE1"/>
  <rect x="800" y="452" width="5" height="52" rx="2" fill="#A8562E"/>
  <text x="826" y="476" font-family="Arial, sans-serif" font-size="14" font-weight="700" fill="#23281F">Start tomatoes indoors</text>
  <text x="826" y="494" font-family="Courier New, monospace" font-size="11" fill="#5B5F52">Mar 1 – Mar 7</text>
  <rect x="800" y="514" width="420" height="52" rx="3" fill="#F2EEE1"/>
  <rect x="800" y="514" width="5" height="52" rx="2" fill="#E3B23C"/>
  <text x="826" y="538" font-family="Arial, sans-serif" font-size="14" font-weight="700" fill="#23281F">Direct sow carrots</text>
  <text x="826" y="556" font-family="Courier New, monospace" font-size="11" fill="#5B5F52">Apr 8 – Apr 14</text>
  <rect x="800" y="576" width="420" height="52" rx="3" fill="#F2EEE1"/>
  <rect x="800" y="576" width="5" height="52" rx="2" fill="#6B8F71"/>
  <text x="826" y="600" font-family="Arial, sans-serif" font-size="14" font-weight="700" fill="#23281F">Transplant lettuce</text>
  <text x="826" y="618" font-family="Courier New, monospace" font-size="11" fill="#5B5F52">Apr 15 – Apr 21</text>
</svg>
